<svg xmlns="http://www.w3.org/2000/svg" xmlns:xlink="http://www.w3.org/1999/xlink" viewBox="0 0 793.96 320.98"><defs><style>.a{fill:none;}.b{isolation:isolate;}.c{mix-blend-mode:overlay;opacity:0.35;}.d{fill:#fff;}.e{fill:#111;}.f{fill:url(#a);}.g{fill:url(#b);}.h{clip-path:url(#c);}.i{clip-path:url(#d);}.j{fill:url(#f);}.k{fill:url(#g);}.l{fill:url(#h);}.m{fill:url(#i);}.n{fill:url(#j);}.o{fill:url(#k);}.p{fill:url(#l);}.q{fill:url(#m);}.r{fill:url(#n);}.s{fill:url(#o);}.t{fill:url(#p);}.u{fill:url(#q);}.v{fill:url(#r);}.w{fill:url(#s);}.x{fill:url(#t);}.y{fill:url(#u);}.z{fill:url(#v);}.aa{fill:url(#w);}.ab{fill:url(#x);}.ac{fill:url(#y);}.ad{fill:url(#z);}.ae{fill:url(#aa);}.af{fill:url(#ab);}.ag{fill:url(#ac);}.ah{fill:url(#ad);}</style><linearGradient id="a" x1="133.36" y1="120.49" x2="141.02" y2="111.73" gradientUnits="userSpaceOnUse"><stop offset="0" stop-color="#033d53"/><stop offset="1" stop-color="#82f696"/></linearGradient><linearGradient id="b" x1="162.83" y1="97.63" x2="164.29" y2="91.06" xlink:href="#a"/><clipPath id="c"><path class="a" d="M164.8,48.43c.19-1.22.42-2.44.66-3.64-1.25-.06-2.51-.1-3.77-.13A29,29,0,0,1,164.8,48.43Z"/></clipPath><clipPath id="d"><rect class="a" x="156.69" y="39.66" width="13.77" height="13.77"/></clipPath><linearGradient id="f" x1="192.93" y1="194.48" x2="212.9" y2="194.48" gradientUnits="userSpaceOnUse"><stop offset="0.05" stop-color="#ffbe07"/><stop offset="0.78" stop-color="#7c120d"/></linearGradient><linearGradient id="g" x1="80.07" y1="248.79" x2="81.7" y2="237.37" xlink:href="#a"/><linearGradient id="h" x1="68.51" y1="138.68" x2="84.2" y2="87.22" gradientUnits="userSpaceOnUse"><stop offset="0.32" stop-color="#033d53"/><stop offset="1" stop-color="#82f696"/></linearGradient><linearGradient id="i" x1="109.86" y1="89.11" x2="159.5" y2="115.39" gradientUnits="userSpaceOnUse"><stop offset="0.17" stop-color="#1d6260"/><stop offset="0.5" stop-color="#82f696"/><stop offset="1" stop-color="#033d53"/></linearGradient><linearGradient id="j" x1="111.79" y1="57.34" x2="115.27" y2="84.95" gradientUnits="userSpaceOnUse"><stop offset="0" stop-color="#ffbe07"/><stop offset="1" stop-color="#7c120d"/></linearGradient><linearGradient id="k" x1="59.98" y1="168.1" x2="88.45" y2="112.62" xlink:href="#a"/><linearGradient id="l" x1="103.64" y1="81.19" x2="182.72" y2="110.42" gradientUnits="userSpaceOnUse"><stop offset="0" stop-color="#82f696"/><stop offset="0.02" stop-color="#75e48f"/><stop offset="0.08" stop-color="#4da97a"/><stop offset="0.13" stop-color="#2d7a69"/><stop offset="0.18" stop-color="#16595d"/><stop offset="0.22" stop-color="#084456"/><stop offset="0.25" stop-color="#033d53"/><stop offset="0.31" stop-color="#054054"/><stop offset="0.35" stop-color="#0c4a58"/><stop offset="0.4" stop-color="#175b5e"/><stop offset="0.43" stop-color="#287266"/><stop offset="0.47" stop-color="#3d9171"/><stop offset="0.51" stop-color="#56b67f"/><stop offset="0.54" stop-color="#74e28f"/><stop offset="0.56" stop-color="#82f696"/><stop offset="0.94" stop-color="#043f54"/></linearGradient><linearGradient id="m" x1="100.32" y1="278.49" x2="87.58" y2="197.85" gradientUnits="userSpaceOnUse"><stop offset="0" stop-color="#033d53"/><stop offset="0.79" stop-color="#82f696"/><stop offset="1" stop-color="#277266"/></linearGradient><linearGradient id="n" x1="94.04" y1="256.06" x2="74.33" y2="207.15" gradientUnits="userSpaceOnUse"><stop offset="0" stop-color="#033d53"/><stop offset="0.59" stop-color="#82f696"/><stop offset="1" stop-color="#033d53"/></linearGradient><linearGradient id="o" x1="79.55" y1="253.81" x2="91.55" y2="222.19" gradientUnits="userSpaceOnUse"><stop offset="0.32" stop-color="#033d53"/><stop offset="0.82" stop-color="#82f696"/></linearGradient><linearGradient id="p" x1="134.86" y1="195.24" x2="146.17" y2="278.87" xlink:href="#j"/><linearGradient id="q" x1="59.76" y1="75.13" x2="215.65" y2="215.8" gradientUnits="userSpaceOnUse"><stop offset="0.17" stop-color="#ffb800"/><stop offset="0.24" stop-color="#cc6815"/><stop offset="0.45" stop-color="#ffbe07"/><stop offset="0.63" stop-color="#fc0"/><stop offset="0.63" stop-color="#fecb00"/><stop offset="0.71" stop-color="#d08a05"/><stop offset="0.78" stop-color="#ac5608"/><stop offset="0.84" stop-color="#92310b"/><stop offset="0.89" stop-color="#821a0c"/><stop offset="0.92" stop-color="#7c120d"/></linearGradient><linearGradient id="r" x1="210.16" y1="133.14" x2="218.98" y2="141.46" xlink:href="#j"/><linearGradient id="s" x1="201.06" y1="117.81" x2="217.64" y2="133.96" gradientUnits="userSpaceOnUse"><stop offset="0" stop-color="#ffbe07"/><stop offset="0.12" stop-color="#f7b307"/><stop offset="0.32" stop-color="#e09508"/><stop offset="0.6" stop-color="#bc650a"/><stop offset="0.92" stop-color="#8a240c"/><stop offset="1" stop-color="#7c120d"/></linearGradient><linearGradient id="t" x1="168.92" y1="88.54" x2="243.72" y2="123.42" gradientUnits="userSpaceOnUse"><stop offset="0.31" stop-color="#ffbe07"/><stop offset="0.63" stop-color="#7c120d"/></linearGradient><linearGradient id="u" x1="195.4" y1="143.13" x2="154.6" y2="237.41" gradientUnits="userSpaceOnUse"><stop offset="0" stop-color="#ffd900"/><stop offset="1" stop-color="#7c120d"/></linearGradient><linearGradient id="v" x1="198.82" y1="136.52" x2="172.93" y2="212.22" gradientUnits="userSpaceOnUse"><stop offset="0" stop-color="#ffea07"/><stop offset="0.27" stop-color="#ffbe07"/><stop offset="1" stop-color="#7c120d"/></linearGradient><linearGradient id="w" x1="231.41" y1="133.07" x2="154.88" y2="193.48" gradientUnits="userSpaceOnUse"><stop offset="0" stop-color="#9b3b0c"/><stop offset="0.46" stop-color="#ffbe07"/><stop offset="1" stop-color="#7c120d"/></linearGradient><linearGradient id="x" x1="241.89" y1="158.6" x2="226.19" y2="98.01" xlink:href="#a"/><linearGradient id="y" x1="197.85" y1="59.57" x2="198.21" y2="47.16" xlink:href="#a"/><linearGradient id="z" x1="176.35" y1="160.61" x2="242.83" y2="31.98" gradientUnits="userSpaceOnUse"><stop offset="0" stop-color="#033d53"/><stop offset="0.42" stop-color="#82f696"/><stop offset="0.51" stop-color="#80f495"/><stop offset="0.56" stop-color="#7bec92"/><stop offset="0.6" stop-color="#72de8d"/><stop offset="0.64" stop-color="#64cb86"/><stop offset="0.67" stop-color="#53b17d"/><stop offset="0.7" stop-color="#3e9372"/><stop offset="0.73" stop-color="#266f65"/><stop offset="0.73" stop-color="#256e65"/></linearGradient><linearGradient id="aa" x1="239.69" y1="214.55" x2="266.67" y2="214.55" gradientUnits="userSpaceOnUse"><stop offset="0" stop-color="#0b2354"/><stop offset="1" stop-color="#2acffe"/></linearGradient><linearGradient id="ab" x1="146.32" y1="177.19" x2="165.78" y2="177.19" xlink:href="#aa"/><linearGradient id="ac" x1="150.38" y1="230.03" x2="177.83" y2="160.43" gradientUnits="userSpaceOnUse"><stop offset="0" stop-color="#0b2354"/><stop offset="0.49" stop-color="#2acffe"/><stop offset="1" stop-color="#0b2354"/></linearGradient><linearGradient id="ad" x1="165.86" y1="229" x2="189.06" y2="127.64" gradientUnits="userSpaceOnUse"><stop offset="0" stop-color="#0b2354"/><stop offset="0.32" stop-color="#2acffe"/><stop offset="1" stop-color="#0b2354"/></linearGradient></defs><g class="b"><path class="d" d="M775.43,37.46a45.59,45.59,0,0,0-21.41-17c-7.8-3.12-16.93-4.69-27.14-4.69-215.84,0-529,.28-567.57.28a144.28,144.28,0,0,0-102,246.29,143.33,143.33,0,0,0,102,42.26H672.92A18,18,0,0,0,690,280.91L646.91,151.47h82.81c10.75,0,19.65-1.61,27.23-4.91A41.43,41.43,0,0,0,777,129c4.06-7.11,6.12-15.49,6.12-24.89V64.58C783.08,54.17,780.51,45.05,775.43,37.46Z"/><path class="a" d="M360.14,254.5a21.94,21.94,0,0,0,1.05-7.6V188.56a24.37,24.37,0,0,0-2-10.26,10.66,10.66,0,0,0-4.44-4.85c-1.59-1-4.75-2.13-10.78-2.13H331.17v88.77h11.77a44.27,44.27,0,0,0,11.23-1.21,11.65,11.65,0,0,0,4.4-2A5.38,5.38,0,0,0,360.14,254.5Z"/><path class="a" d="M550,171.32v81.16l27.46-83.57a17.84,17.84,0,0,1-9,2.41Z"/><path class="a" d="M504.63,171.32H487a17.86,17.86,0,0,1-9.63-2.79l27.27,81.95Z"/><path class="a" d="M406.92,190.39v2.86l15.89-48.37a47.78,47.78,0,0,1-13.18-10.48,39.52,39.52,0,0,1-3.63-4.85l-2.31,8.59a18,18,0,0,1-9.55,11.54,56.54,56.54,0,0,1,5.35,8.35C404.42,167.43,406.92,178.31,406.92,190.39Z"/><polygon class="e" points="629.71 34.05 604.14 34.05 604.14 133.47 674.3 133.47 674.3 110.75 629.71 110.75 629.71 34.05"/><path class="e" d="M470.34,235.15l17.22,51.45h10.12L450.49,144.82h-8.71L395.19,286.6h10.13l17-51.45ZM446,159.8l21.68,66H425Z"/><circle class="e" cx="159.31" cy="160.32" r="126.27"/><path class="e" d="M388.92,190.39q0-13.77-5.37-24a37.77,37.77,0,0,0-15.8-15.89q-10.42-5.67-25.82-5.67H303.65V286.6H346q14.38,0,23.9-4.56a30.69,30.69,0,0,0,14.28-13.57q4.75-9,4.76-22.38Zm-9.73,56.51a39.49,39.49,0,0,1-2.22,14,23.34,23.34,0,0,1-6.79,9.73,29,29,0,0,1-11.34,5.67,61.87,61.87,0,0,1-15.9,1.82H313.17V153.32H344q12.36,0,20.16,4.76a28.7,28.7,0,0,1,11.44,12.76,42.26,42.26,0,0,1,3.64,17.72Z"/><path class="e" d="M765.08,64.58q0-10.21-4.61-17.11a27.77,27.77,0,0,0-13.14-10.3q-8.52-3.41-20.45-3.4H683.27v99.7h46.45q12.22,0,20-3.41a23.76,23.76,0,0,0,11.57-10q3.76-6.61,3.76-16Zm-25.84,37.36a12.7,12.7,0,0,1-.57,4,7.13,7.13,0,0,1-1.63,2.69,6.33,6.33,0,0,1-2.77,1.57,15,15,0,0,1-4.12.5H708.84V56.35h21.59a10.34,10.34,0,0,1,5,1.06,6.54,6.54,0,0,1,2.84,3.06,12.12,12.12,0,0,1,.93,5.11Z"/><polygon class="e" points="568.41 144.82 486.99 144.82 486.99 153.32 522.63 153.32 522.63 286.6 531.95 286.6 531.95 153.32 568.41 153.32 568.41 144.82"/><path class="e" d="M417.7,107.05a22.62,22.62,0,0,0,5.47,15.48A33.11,33.11,0,0,0,438,131.91,65.31,65.31,0,0,0,458.74,135a62.15,62.15,0,0,0,21.37-3.34A31.74,31.74,0,0,0,494.39,122a23.11,23.11,0,0,0,5.12-15V61.46q0-13.92-10.66-21.87t-29.82-8q-19.32,0-30.33,7.59t-11,22.09Zm25.14-42.18a12.47,12.47,0,0,1,1.48-6.61,8.55,8.55,0,0,1,4.83-3.4,31.31,31.31,0,0,1,9.17-1.07,33,33,0,0,1,9.23,1.07,10.49,10.49,0,0,1,5.4,3.4,10.22,10.22,0,0,1,1.84,6.47v37.78a10.64,10.64,0,0,1-1.63,6.1,9.73,9.73,0,0,1-5.11,3.62,35,35,0,0,1-18.25,0,9.19,9.19,0,0,1-7-9.72Z"/><path class="e" d="M534.89,108.9h13.7c1.09,0,2.22,0,3.41-.07s2-.08,2.63-.08L565,133.47h29.82l-15.2-30.68a25.83,25.83,0,0,0,7.61-6.74,31.16,31.16,0,0,0,5-10.37A53.21,53.21,0,0,0,594,71.12q0-12.23-3.48-19.6A25.22,25.22,0,0,0,581,40.44a38.06,38.06,0,0,0-13.35-5,83.5,83.5,0,0,0-15.05-1.35H509.46v99.42h25.43Zm0-51.42h20.59a15.19,15.19,0,0,1,5,.78,9.75,9.75,0,0,1,3.91,2.49A12.17,12.17,0,0,1,566.92,65a18.71,18.71,0,0,1,.91,6.25,24.74,24.74,0,0,1-.91,7.31,11.79,11.79,0,0,1-2.56,4.62,9.1,9.1,0,0,1-4,2.42,17.44,17.44,0,0,1-5,.7H534.89Z"/><path class="e" d="M584.83,235.15h48l17.21,51.45h10.13L613,144.82h-8.7L557.69,286.6h10.13Zm23.7-75.35,21.67,66H587.46Z"/><polygon class="e" points="329.92 133.47 345.12 81.06 359.89 133.47 386.31 133.47 413.01 34.05 386.88 34.05 372.82 91.29 358.32 34.05 332.2 34.05 317.43 91.29 303.94 34.05 277.37 34.05 303.65 133.47 329.92 133.47"/><path class="f" d="M141.64,119.11a16.75,16.75,0,0,1-7.1-8.06C134.64,114.4,131.77,124.79,141.64,119.11Z"/><path class="g" d="M188,96.91c-.76-1.61-3-1.89-4.55-2.17-11.89-2.12-23.26,2.8-33.7-7.48-2.71-2.67-5.06-6-8.48-7.76,3.77,2.67,5.93,5.78,8.09,9.41,4.5,7.56,6.51,8.6,21.8,8.6,5,0,12.7-.17,16.74,2.34A3.52,3.52,0,0,0,188,96.91Z"/><path class="j" d="M199.62,191.19c4.11,7.36,12.58,9.07,19.83,2.46C213.45,197.31,205,195.9,199.62,191.19Z"/><path class="k" d="M72.53,236.76A116.46,116.46,0,0,0,88.87,252C86,240.84,87.63,238.41,72.53,236.76Z"/><path class="l" d="M68.17,108.58c-4,6.6-6.71,14.15-8.49,23.56,3.82-5.37-1.07-4.76,20.83-26.65a18.86,18.86,0,0,1,3.55-2.86,51.5,51.5,0,0,1,9.12-7.44C81.56,96,77,94.05,68.17,108.58Z"/><path class="m" d="M144.44,117.35c2.9-1.86,8.58-4.2,15.4-5.49-30.52-7.34-16.2-29-45.63-21.18A24.39,24.39,0,0,1,125,96.37C138.26,99.52,133.46,113.18,144.44,117.35Z"/><path class="n" d="M83,82c4.37,1.23,6.32,3.92,20.54-5.28,13-8.43,34-14.3,46.18-4.76-.6-2-1.17-4-1.79-5.43-2.66-6.33-11.55-7.32-27.17-3-17.27,4.78-28.65,17.09-42.09,14l-.35.33A13.74,13.74,0,0,0,83,82Z"/><path class="o" d="M75.79,205.69C58,195.86,53.37,173,53,160.15c-.19-6.46,1-12.64,2.12-18.63,2.44-12.48,4.42-28.82,16-41.81a18.9,18.9,0,0,1,10-6.32,19.72,19.72,0,0,1-8.63-5.45C50.38,101,30,163.32,55.42,201.7a39.38,39.38,0,0,0,10.42,3.71C67.6,205.67,74,205.74,75.79,205.69Z"/><path class="p" d="M158.05,108.36c2.69.61,11-.3,17.17-.25,4.59-.88,8.15-2.36,11.14-5.92-6.54-4.08-25.32.54-33.27-4.64-7.5-4.89-7.37-17.25-22.73-19.29-12.23,2-23,9.78-33.62,13.85,3.64-.41,3.13-.47,4.58-1,3.19-1.23,3.71-.59,7.49-1.72C147.87,77.77,131.74,102.45,158.05,108.36Z"/><path class="q" d="M98.8,211.42c-5.2-1.41-9.34-2-14.73-3.9-8,0-20.79,3.87-32.47-5,1.14,2.92,2.41,5.78,3.78,8.58,16,5.44,39.83-2.27,50.47,17.29,5.83,9,3.1,25.94,18.4,41.72l.11.11.53.54a114.11,114.11,0,0,0,11.4,3C103.52,246.13,131.09,228.29,98.8,211.42Z"/><path class="r" d="M106.17,236.52c-7.61-25.41-30.49-17.34-49.07-22,1.83,3.43,3.06,5.49,4.77,8.16,43.6-2.67,35.89,20.16,45.28,40.92,2.67,1.36,5.4,2.6,8.19,3.75C108.62,255,109.17,246.53,106.17,236.52Z"/><path class="s" d="M63.66,225.35c2.1,3.08,4.22,5.89,6.31,8.43,20.82,1.27,18.5,6.51,22.46,20.9a114.67,114.67,0,0,0,10.87,6.86C95.77,242.47,102.09,223.74,63.66,225.35Z"/><path class="t" d="M191,271.6c2.76-.78,5.89-1.81,8.46-2.76-16.6-1.7-28.23-6.86-39.84-16.07-20.48-12.29-16.23-35-17.78-43.81-1.79-8.18-3.22-16.59-20.59-18.23-11.94-1.83-46.6-3.62-43.17-42.42-1.66,1.93-5.12,16.42,2,29.05,10.06,17.94,27.29,14.28,42.48,22.58,31.5,17.2-10.19,50.83,57.4,69.68A61.41,61.41,0,0,0,191,271.6Z"/><path class="u" d="M182.87,77c-6-.55-13.67-.66-19.15-3.82-6.63-3.82-6.08-9.86-9.19-15.32-8-14-42.94-10.71-73.37,17.21,9.24,1.12,16.76-5.31,29.74-11,12.11-5.29,34.4-11,39.56,1.29,1.19,2.84,2.07,7,3.5,10.39,1.19,1.2,2.36,2.44,3.58,3.64,9,8.8,26.29-.51,36.69,8,6.78,5.51,5.89,15.15.57,21.82-7.47,9.35-19,9.39-29,11.59-63.61,26.87-25.64-9.51-44.1-23.62-5.86-4.45-14-5.62-19.42-3.54a46.11,46.11,0,0,0-16.48,11.11c-1.85,2.9-11.86,15-16.66,31.38-6.88,26.54,1.32,53.47,15.6,59.88,17.91,8,29.68,3.54,36.26,15.78,12.74,15.08.52,29.39,16.23,47.47A58.41,58.41,0,0,0,162.46,276a114.48,114.48,0,0,0,21.42-2.61,85.18,85.18,0,0,1-8.26-2.14c-54.39-9.68-33.93-41.87-48.49-65.07-16.5-13.87-36.94-5.14-49.46-27.46-7-12.42-4.77-27.92-2-31.77,2-15.32,8.83-31.9,21.35-41.06,15.64-13.28,31.62-.31,22.1,18.05,9.74,21.55,27.5,1.08,49.12,3.34,21.8-5.62,34.22-11.21,36.93-16.63C212,97,195.79,78.21,182.87,77Z"/><path class="v" d="M194.65,160.17c5.26-14.8,16-18.6,26.36-24.3,5-4.08,9.15-7,11.94-9.4,3.42-5.21,1.48-10.61-2.26-15.63a10.19,10.19,0,0,1-1.82,4.5c-3.39,14.74-18.86,24.41-33.33,33.06-.63,1.7-1.2,3.5-1.77,5.4C194.13,155.78,194.42,157.92,194.65,160.17Z"/><path class="w" d="M188.53,137.93a49.57,49.57,0,0,1,3.69,9.22c27.37-15.56,35.17-25.5,34.7-40.78a88.09,88.09,0,0,1-6.9-8.05C224.38,128.37,191.88,136,188.53,137.93Z"/><path class="x" d="M165.1,70.82c4.87,2.8,12.63,3,18,3.46,15.62,1.43,32.09,22.51,24.54,37.59-4.1,8.19-23.88,14-32.9,16.54,4.68,1.21,9.06,3.37,12.13,7.13,20.18-6.3,34.3-18.26,29.94-39.11-1.13-5.43-1.77-5.5-4.12-10.09-2.93-5.73-4.31-9.54-18.26-11.1-8.78-1-18.47-.67-25.16-6.6-4.47-4-5.42-9.73-5-15.79a26.84,26.84,0,0,0-6.68-8.2,117.78,117.78,0,0,0-15.25,1.22C165.73,56.85,155.33,65.19,165.1,70.82Z"/><path class="y" d="M244.91,165.72c-8,5.15-11.74,11.49-16.55,20.56-2.58,4.88-9.77,16-20.86,14-9.28-1.67-12.68-10.92-14.1-20.58-2.15-9,.83-22.52-6.46-38.86-2.84-6.35-8.93-9.19-15.77-10.39-18-3.15-26.32,5.19-39,6.19-5,.4-12.25-3.77-15-9.17-1.09,1.8-2.23,3.58-3.29,5.4,2.19,2.9,10,8.52,18.3,7.45,12.57-1.61,34.67-16,48.44-.26,14.13,16.18.93,40.05,15.75,57.76,7.66,9.16,18.16,12.57,28.2,5.83,13.6-9.9,10.37-21.62,24.68-30.83C256.07,166,266,162,275,158a115.76,115.76,0,0,0-3.33-25.43C273.64,156.35,259.51,156.32,244.91,165.72Z"/><path class="z" d="M275,161c-8.39,3.68-17.82,7.67-24,14-10.24,10.41-17.43,33.27-35.7,34.91-12.7,1.13-29.85-11.1-29.64-38.75.13-17.87-3.21-34.53-21-35.56-12.42-.71-25.31,8.37-36.41,7.64-5.2-.34-12.39-4.08-15.78-7.76a29.24,29.24,0,0,0-1.86,4.47,10.47,10.47,0,0,1,.47,1c3.42,8.46,25.67,8.9,31.7,7.11,8.24-2.45,16.84-8.11,25.84-4.57,24.08,9.47,7.49,45.19,24.68,63.41,22,23.34,35.42,7.17,55-14.51,11.17-18,14.18-15.39,26.38-22.91C274.85,166.79,275,164.15,275,161Z"/><path class="aa" d="M274.32,172.94c-34,22-49.48,71.46-83.08,35.84-18-19.09-1.76-54.11-23.68-62.73-7.82-3.07-15.73,2.18-24,4.65-7.9,2.34-27.88,1.1-33.8-6.58-.54,9,10.45,12.43,19.42,12.94,4.54.26,21.86-1.26,22-1.29,9.69-2.28,17.67-.75,20.29,8.82,7.28,10.17,4.17,23.24,5.22,35.13,4.06,12.32,13.68,21.44,24.32,26.51,25.35,6.39,31-13.61,63.2-34.57a90.83,90.83,0,0,1,8.4-7.57q1.13-5.39,1.74-10.94Z"/><path class="ab" d="M233.35,78.82c3,6.31,3.21,7.09,9.38,11.6,8.4,6.11,15.66,9.66,13.3,25.06A36.35,36.35,0,0,1,232.9,152c-8.23,5.21-18.85,8.87-20.15,18.52a9.32,9.32,0,0,0,4.51,6.44c9.89-24.34,26.15-20.28,35.11-32.2,5-6.71,8.27-11.92,8-30.23-.05-3.74-.24-7.7-.67-11.67a116.5,116.5,0,0,0-35.57-38.29C228.34,68.93,230.94,73.68,233.35,78.82Z"/><path class="ac" d="M187.86,48.21c5.12,6.89,11.37,5.07,20.43,7.32A115.44,115.44,0,0,0,187.86,48.21Z"/><path class="ad" d="M187.11,63.15c8.23,1,19.52,1.85,26.33,6.69,9.32,6.18,7.27,13,18.19,25.35,8,9,13.62,11.89,13.61,22.62a21.72,21.72,0,0,1-5.51,17.82c-6.24,7-15,10.35-23,14.72-14.45,7.85-16.42,26.77-8.64,33.63a7.6,7.6,0,0,0,3.74.57c2.75-.12,3.66-2.41,4.51-5-6.67-3.59-8.23-11.8-4.52-18.28,5.49-9.6,17.82-9.66,25.51-14.44,17.16-10.68,23.55-36.16,4.27-52.53-5.34-4.54-6.89-6.18-10.71-14.31-4.45-9.5-9.94-17.32-20-20.82C200,55.43,180.76,57.76,182.6,47c-2-.42-4.13-.8-6.22-1.11a47.44,47.44,0,0,0-1.15,7.1C177,57.53,180.91,61.32,187.11,63.15Z"/><path class="ae" d="M239.69,225.65c7.28-4.09,13.91-7.72,23-13.38q2.18-4.31,4-8.82C253.66,212.63,244.78,221.4,239.69,225.65Z"/><path class="af" d="M146.32,167.5c9.85,3.26,15.66,9.69,19.44,19.86C166.13,167.58,159.56,165.84,146.32,167.5Z"/><path class="ag" d="M233.56,244.26c-23.41,10.19-47.74,5.64-61.92-5.16-15.16-11.79-12.86-33.2-19.48-48.78-8.54-20.09-40.78-4.29-56-25.69-4.7-6.59-6.13-16.15-3.91-26.25C96.45,119,108.74,114,110.35,112.44c-6.78-5-21.11,23.9-21.75,39.46,4.08,17.31,15.38,23.1,29.84,27.62,12.61,1.89,22.39,2.54,29.09,13.56,13.54,22.26-7,42.15,33.72,59.78,14.05,4.22,31,3.85,45.67,1.28A116.23,116.23,0,0,0,241,242.19Q237.27,243.35,233.56,244.26Z"/><path class="ah" d="M220.86,237.46c-11.24,3.14-24.28,1.92-35.78-3.33-7.87-3.6-11.67-7.69-14-15.1-1.4-4.38-4.8-8.54-5.33-22.22-5.5-22.18-14.59-27.88-35.07-28.63-27.93-1-35.51-17.6-30.09-33.09,2.36-6.75,8.74-14.62,10.2-19.28-10.43,2.85-24,30.94-12.4,47.22,8.24,11.55,25.26,11.65,34.83,12.95,20,2.72,22.36,11.32,26.42,31.3,2.51,12.39,5,24.24,15.68,31,18.27,11.51,40.91,11.56,60.13,2.09,4.6-2.26,9.14-4.63,13.59-7.07a116.11,116.11,0,0,0,11.07-16.2C252.32,221.79,230.22,234.84,220.86,237.46Z"/></g></svg>